<?xml version="1.0" encoding="utf-8"?>
<!-- Generator: Adobe Illustrator 17.0.0, SVG Export Plug-In . SVG Version: 6.00 Build 0)  -->
<!DOCTYPE svg PUBLIC "-//W3C//DTD SVG 1.1//EN" "http://www.w3.org/Graphics/SVG/1.1/DTD/svg11.dtd">
<svg version="1.1" id="Layer_1" xmlns="http://www.w3.org/2000/svg" xmlns:xlink="http://www.w3.org/1999/xlink" x="0px" y="0px"
	 width="841.89px" height="595.28px" viewBox="0 0 841.89 595.28" enable-background="new 0 0 841.89 595.28" xml:space="preserve">
<path fill="#231F20" d="M730.424,258.956c-5.046-8.749-11.1-13.795-21.863-13.795c-11.272,0-21.028,8.078-21.028,19.684
	c0,10.932,11.265,15.978,19.846,19.846l8.415,3.702c16.484,7.233,30.444,15.476,30.444,35.659c0,22.207-17.831,39.196-39.859,39.196
	c-20.358,0-35.497-13.121-39.536-32.805l13.799-3.867c1.849,12.956,11.771,23.555,25.397,23.555s26.068-10.43,26.068-24.727
	c0-14.799-11.599-19.852-23.376-25.232l-7.738-3.369c-14.806-6.731-27.584-14.297-27.584-32.465c0-19.68,16.652-32.29,35.49-32.29
	c14.125,0,26.068,7.233,32.798,19.68L730.424,258.956z"/>
<path fill="#231F20" d="M826.077,258.956c-5.046-8.749-11.1-13.795-21.863-13.795c-11.272,0-21.028,8.078-21.028,19.684
	c0,10.932,11.272,15.978,19.846,19.846l8.415,3.702c16.483,7.233,30.444,15.476,30.444,35.659c0,22.207-17.831,39.196-39.859,39.196
	c-20.358,0-35.497-13.121-39.536-32.805l13.799-3.867c1.849,12.956,11.777,23.555,25.397,23.555
	c13.627,0,26.074-10.43,26.074-24.727c0-14.799-11.605-19.852-23.383-25.232l-7.731-3.369
	c-14.809-6.731-27.587-14.297-27.587-32.465c0-19.68,16.652-32.29,35.49-32.29c14.125,0,26.068,7.233,32.798,19.68L826.077,258.956z
	"/>
<path fill="#231F20" d="M588.025,234.229h65.769v13.118h-51.637v37.68h50.124v13.121h-50.124v49.787h51.637v13.118h-65.769V234.229z
	"/>
<path fill="#231F20" d="M0,228.843L98.911,332.46v-98.23h14.125v132.545L14.132,263.329v97.725H0V228.843z"/>
<path fill="#231F20" d="M310.666,329.263l41.042-101.596l41.039,101.596l33.311-95.03h15.301l-48.612,133.384l-41.039-102.101
	l-41.042,102.098l-48.615-133.384h15.308L310.666,329.263z"/>
<path fill="#231F20" d="M261.93,297.815c0,36.497-29.945,65.432-66.106,65.432c-36.167,0-66.106-28.935-66.106-65.432
	c0-36.332,29.938-65.769,66.106-65.769C231.988,232.043,261.93,261.483,261.93,297.815z M143.847,297.64
	c0,28.598,23.211,52.486,51.98,52.486c28.763,0,51.974-23.888,51.974-52.486c0-28.763-22.877-52.479-51.974-52.479
	C166.721,245.161,143.847,268.877,143.847,297.64z"/>
<path fill="#231F20" d="M455.288,228.843l98.904,103.617v-98.23h14.125v132.545l-98.904-103.449v97.725h-14.125V228.843z"/>
</svg>
